<svg width="27" height="19" viewBox="0 0 27 19" fill="none" xmlns="http://www.w3.org/2000/svg">
<path id="Vector" d="M4.15459 1.57902C5.86464 0.842959 7.71612 0.308724 9.64474 5.46086e-05C9.66165 -0.000444727 9.67847 0.00248535 9.69402 0.00863889C9.70957 0.0147924 9.72347 0.02402 9.73474 0.0356705C9.96618 0.427443 10.2362 0.937934 10.4162 1.32971C12.4618 1.04478 14.5422 1.04478 16.5878 1.32971C16.7678 0.926062 17.0378 0.427443 17.2821 0.0356705C17.295 0.0119268 17.3335 5.46086e-05 17.3721 5.46086e-05C19.3007 0.308724 21.1393 0.842959 22.8622 1.57902C22.8751 1.57902 22.888 1.59089 22.9008 1.60276C26.3981 6.43462 27.3624 11.1359 26.8866 15.7897C26.8866 15.8134 26.8738 15.8372 26.8481 15.849C24.5337 17.4161 22.3094 18.3659 20.1107 18.9951C20.0722 19.007 20.0336 18.9951 20.0207 18.9713C19.5064 18.3184 19.0436 17.6298 18.645 16.9056C18.6193 16.8581 18.645 16.8107 18.6964 16.7988C19.4293 16.5376 20.1236 16.2289 20.805 15.8728C20.8565 15.849 20.8565 15.7778 20.8179 15.7422C20.6765 15.6472 20.535 15.5404 20.3936 15.4454C20.3679 15.4216 20.3293 15.4216 20.3036 15.4335C15.8806 17.2974 11.1105 17.2974 6.73895 15.4335C6.71323 15.4216 6.67466 15.4216 6.64894 15.4454C6.50751 15.5522 6.36608 15.6472 6.22465 15.7541C6.17322 15.7897 6.17322 15.8609 6.23751 15.8846C6.9061 16.2527 7.61326 16.5495 8.34613 16.8107C8.39756 16.8225 8.41042 16.8819 8.39756 16.9175C7.98612 17.6417 7.52325 18.3303 7.02181 18.9832C6.98324 18.9951 6.94467 19.007 6.9061 18.9951C4.69461 18.3659 2.47026 17.4161 0.155912 15.849C0.130197 15.8372 0.117338 15.8134 0.117338 15.7897C-0.448391 10.4117 1.05594 5.74605 4.10316 1.60276C4.11602 1.59089 4.12888 1.57902 4.15459 1.57902ZM17.9764 12.9523C19.3007 12.9523 20.4065 11.8245 20.4065 10.4354C20.4065 9.04644 19.3264 7.91861 17.9764 7.91861C16.6135 7.91861 15.5335 9.05831 15.5463 10.4354C15.5463 11.8245 16.6264 12.9523 17.9764 12.9523ZM9.01472 12.9523C10.339 12.9523 11.4448 11.8245 11.4448 10.4354C11.4448 9.04644 10.3648 7.91861 9.01472 7.91861C7.65183 7.91861 6.5718 9.05831 6.58466 10.4354C6.58466 11.8245 7.65183 12.9523 9.01472 12.9523Z" fill="#1363FF"/>
</svg>
