<svg width="34" height="35" viewBox="0 0 34 35" fill="none" xmlns="http://www.w3.org/2000/svg">
<path d="M14.125 21.7188L21.4234 17.5L14.125 13.2812V21.7188ZM30.3812 10.7078C30.5641 11.3688 30.6906 12.2547 30.775 13.3797C30.8734 14.5047 30.9156 15.475 30.9156 16.3187L31 17.5C31 20.5797 30.775 22.8438 30.3812 24.2922C30.0297 25.5578 29.2141 26.3734 27.9484 26.725C27.2875 26.9078 26.0781 27.0344 24.2219 27.1187C22.3938 27.2172 20.7203 27.2594 19.1734 27.2594L16.9375 27.3438C11.0453 27.3438 7.375 27.1187 5.92656 26.725C4.66094 26.3734 3.84531 25.5578 3.49375 24.2922C3.31094 23.6312 3.18438 22.7453 3.1 21.6203C3.00156 20.4953 2.95937 19.525 2.95937 18.6813L2.875 17.5C2.875 14.4203 3.1 12.1562 3.49375 10.7078C3.84531 9.44219 4.66094 8.62656 5.92656 8.275C6.5875 8.09219 7.79688 7.96562 9.65313 7.88125C11.4812 7.78281 13.1547 7.74062 14.7016 7.74062L16.9375 7.65625C22.8297 7.65625 26.5 7.88125 27.9484 8.275C29.2141 8.62656 30.0297 9.44219 30.3812 10.7078Z" fill="black"/>
</svg>
