<svg width="32" height="31" viewBox="0 0 32 31" fill="none" xmlns="http://www.w3.org/2000/svg">
<path d="M29.1086 7.76562C28.116 8.2168 27.0461 8.51328 25.9375 8.65508C27.0719 7.97188 27.9484 6.88906 28.3609 5.58711C27.291 6.23164 26.1051 6.68281 24.8547 6.94063C23.8363 5.83203 22.4055 5.1875 20.7812 5.1875C17.7519 5.1875 15.2769 7.6625 15.2769 10.7176C15.2769 11.1559 15.3285 11.5813 15.4187 11.9809C10.8297 11.7488 6.74334 9.54453 4.02342 6.20586C3.54647 7.01797 3.27576 7.97188 3.27576 8.97734C3.27576 10.898 4.24256 12.5996 5.73787 13.5664C4.82264 13.5664 3.97186 13.3086 3.2242 12.9219V12.9605C3.2242 15.6418 5.13201 17.8848 7.65858 18.3875C6.8474 18.6095 5.99581 18.6404 5.17069 18.4777C5.5208 19.5766 6.20649 20.5382 7.13137 21.2272C8.05625 21.9162 9.1738 22.2981 10.3269 22.3191C8.37224 23.8666 5.94927 24.703 3.45623 24.691C3.01795 24.691 2.57967 24.6652 2.14139 24.6137C4.59061 26.1863 7.50389 27.1016 10.6234 27.1016C20.7812 27.1016 26.3629 18.6711 26.3629 11.3621C26.3629 11.1172 26.3629 10.8852 26.35 10.6402C27.4328 9.8668 28.3609 8.88711 29.1086 7.76562Z" fill="black"/>
</svg>
