<svg width="35" height="35" viewBox="0 0 35 35" fill="none" xmlns="http://www.w3.org/2000/svg">
<path d="M27.7234 8.12038C25.8531 7.2485 23.8281 6.61569 21.7187 6.25006C21.7002 6.24947 21.6818 6.25294 21.6648 6.26023C21.6478 6.26752 21.6326 6.27845 21.6203 6.29225C21.3672 6.75631 21.0719 7.361 20.875 7.82506C18.6376 7.48756 16.3623 7.48756 14.125 7.82506C13.9281 7.34694 13.6328 6.75631 13.3656 6.29225C13.3515 6.26413 13.3094 6.25006 13.2672 6.25006C11.1578 6.61569 9.14686 7.2485 7.26248 8.12038C7.24842 8.12038 7.23436 8.13444 7.22029 8.1485C3.39529 13.8719 2.34061 19.4407 2.86092 24.9532C2.86092 24.9813 2.87498 25.0094 2.90311 25.0235C5.43436 26.8798 7.86717 28.0048 10.2719 28.7501C10.314 28.7641 10.3562 28.7501 10.3703 28.7219C10.9328 27.9485 11.439 27.1329 11.875 26.2751C11.9031 26.2188 11.875 26.1626 11.8187 26.1485C11.0172 25.8391 10.2578 25.4735 9.51248 25.0516C9.45623 25.0235 9.45623 24.9391 9.49842 24.8969C9.65311 24.7844 9.80779 24.6579 9.96248 24.5454C9.99061 24.5173 10.0328 24.5173 10.0609 24.5313C14.8984 26.7391 20.1156 26.7391 24.8969 24.5313C24.925 24.5173 24.9672 24.5173 24.9953 24.5454C25.15 24.6719 25.3047 24.7844 25.4594 24.911C25.5156 24.9532 25.5156 25.0376 25.4453 25.0657C24.714 25.5016 23.9406 25.8532 23.139 26.1626C23.0828 26.1766 23.0687 26.2469 23.0828 26.2891C23.5328 27.1469 24.039 27.9626 24.5875 28.736C24.6297 28.7501 24.6719 28.7641 24.714 28.7501C27.1328 28.0048 29.5656 26.8798 32.0969 25.0235C32.125 25.0094 32.139 24.9813 32.139 24.9532C32.7578 18.5829 31.1125 13.0563 27.7797 8.1485C27.7656 8.13444 27.7515 8.12038 27.7234 8.12038ZM12.6062 21.5923C11.1578 21.5923 9.94842 20.2563 9.94842 18.611C9.94842 16.9657 11.1297 15.6298 12.6062 15.6298C14.0969 15.6298 15.2781 16.9798 15.264 18.611C15.264 20.2563 14.0828 21.5923 12.6062 21.5923ZM22.4078 21.5923C20.9594 21.5923 19.75 20.2563 19.75 18.611C19.75 16.9657 20.9312 15.6298 22.4078 15.6298C23.8984 15.6298 25.0797 16.9798 25.0656 18.611C25.0656 20.2563 23.8984 21.5923 22.4078 21.5923Z" fill="black"/>
</svg>
