<svg width="32" height="29" viewBox="0 0 32 29" fill="none" xmlns="http://www.w3.org/2000/svg">
<g clip-path="url(#clip0_71_187)">
<path d="M30.3375 14.5006V14.5357C30.3375 15.1721 30.1532 15.7662 29.8355 16.2689L29.8438 16.2549C29.5259 16.7666 29.0712 17.1808 28.5302 17.4514L28.5113 17.4596C28.6389 17.9318 28.7121 18.4732 28.7121 19.0334V19.0545C28.7035 20.8085 28.0681 22.5015 26.919 23.8346L26.9272 23.824C25.6437 25.3465 23.999 26.5288 22.1408 27.2646L22.0593 27.2928C20.128 28.0967 17.8836 28.5643 15.5282 28.5643L15.3474 28.5631H15.3569L15.1844 28.5643C12.8326 28.5643 10.5917 28.0967 8.54936 27.2506L8.66276 27.2928C6.78355 26.561 5.11838 25.3751 3.81845 23.8428L3.80309 23.824C2.65908 22.4937 2.02713 20.8043 2.01941 19.0557V19.0475C2.01941 18.4967 2.08556 17.96 2.20959 17.4467L2.20014 17.4936C1.64197 17.2236 1.16952 16.8064 0.834612 16.2877L0.826344 16.2748C0.48519 15.7459 0.304752 15.1308 0.306594 14.5029C0.306594 13.5924 0.677506 12.7674 1.27876 12.1697C1.57717 11.8618 1.93527 11.6169 2.33151 11.4497C2.72776 11.2826 3.15398 11.1966 3.58456 11.1971H3.64362H3.64008H3.68615C4.62997 11.1971 5.48047 11.599 6.07109 12.2389L6.07346 12.2412C8.61339 10.5153 11.6134 9.57791 14.6919 9.54824H14.7013L16.6456 0.888086C16.6794 0.74441 16.769 0.619761 16.8949 0.541211L16.8972 0.540039C16.9603 0.496024 17.0322 0.465839 17.1079 0.451493C17.1837 0.437148 17.2617 0.438969 17.3367 0.456836L17.3331 0.455664L23.5158 1.80215C23.7213 1.38848 24.0296 1.05332 24.41 0.820117L24.4206 0.814258C24.7975 0.579883 25.2558 0.44043 25.7472 0.44043C26.4382 0.44043 27.0655 0.71582 27.5202 1.16348C27.975 1.5959 28.2573 2.2041 28.2573 2.87793V2.92012V2.91777V2.95293C28.2573 3.63027 27.975 4.24199 27.5202 4.67793L27.519 4.6791C27.2863 4.91145 27.0095 5.09571 26.7046 5.22123C26.3996 5.34675 26.0726 5.41103 25.7425 5.41035C25.0798 5.41093 24.4439 5.15093 23.9741 4.6873C23.7431 4.46497 23.5596 4.19883 23.4344 3.9047C23.3092 3.61058 23.2449 3.29447 23.2453 2.97519V2.93066V2.93301L17.6485 1.70254L15.9062 9.54707C19.1511 9.57051 22.1585 10.5607 24.6557 12.2424L24.6002 12.2072C24.9103 11.8862 25.2828 11.6309 25.6951 11.4567C26.1075 11.2825 26.5511 11.193 26.9993 11.1936C27.9207 11.1936 28.7546 11.565 29.3583 12.1662C29.9595 12.7475 30.3328 13.5596 30.3328 14.4572V14.5029V14.5006H30.3375ZM7.31613 17.8076V17.8451C7.31613 18.5201 7.59491 19.1307 8.04496 19.5689C8.26815 19.8005 8.53639 19.9847 8.83345 20.1104C9.1305 20.2361 9.45018 20.3007 9.77313 20.3002H9.81566H9.81329C10.4798 20.2996 11.1188 20.0366 11.5901 19.5691C12.0613 19.1016 12.3264 18.4676 12.327 17.8064V17.7666C12.327 17.0928 12.0447 16.4846 11.5899 16.0533L11.5887 16.0521C11.3623 15.8228 11.0919 15.6407 10.7935 15.5165C10.4951 15.3924 10.1747 15.3286 9.85109 15.3291H9.81093H9.81329C9.15293 15.3346 8.52116 15.5972 8.05408 16.0604C7.58701 16.5235 7.32199 17.1501 7.31613 17.8053V17.8076ZM20.8875 23.7092C20.946 23.6531 20.9926 23.5859 21.0244 23.5116C21.0561 23.4373 21.0725 23.3575 21.0725 23.2768C21.0725 23.196 21.0561 23.1162 21.0244 23.0419C20.9926 22.9676 20.946 22.9004 20.8875 22.8443C20.8349 22.7914 20.7722 22.7494 20.703 22.7208C20.6339 22.6922 20.5596 22.6776 20.4847 22.6779H20.4682H20.4599C20.3016 22.6777 20.1492 22.7372 20.0335 22.8443C19.4736 23.3616 18.7815 23.7167 18.0324 23.8709L18.0053 23.8756C16.22 24.3246 14.3493 24.319 12.5668 23.8592L12.6424 23.8756C11.8814 23.7243 11.1776 23.3665 10.6095 22.842L10.6118 22.8443C10.4962 22.737 10.3437 22.6775 10.1854 22.6779H10.1629C10.088 22.6778 10.0138 22.6924 9.94468 22.721C9.87553 22.7495 9.81279 22.7915 9.76014 22.8443C9.70083 22.8958 9.65328 22.9592 9.62069 23.0303C9.58809 23.1015 9.5712 23.1787 9.57114 23.2568V23.2732C9.57114 23.4443 9.64319 23.599 9.76014 23.7092C10.3141 24.2269 10.9811 24.6107 11.7092 24.8307L11.7446 24.84C12.3923 25.0733 13.0637 25.236 13.7469 25.3252L13.7976 25.3311C14.3221 25.3811 14.8301 25.4061 15.3215 25.4061C15.8129 25.4061 16.3208 25.3811 16.8453 25.3311C17.5693 25.2384 18.2808 25.0667 18.9668 24.8189L18.8983 24.8412C19.6416 24.6228 20.3231 24.2351 20.8887 23.7092L20.8863 23.7115L20.8875 23.7092ZM20.8379 20.3014H20.8781C21.5573 20.3014 22.1703 20.0213 22.605 19.5701L22.6062 19.5689C23.0563 19.1307 23.3351 18.5201 23.3351 17.8451V17.8053V17.8076C23.3295 17.1525 23.0648 16.5257 22.5979 16.0624C22.1311 15.599 21.4994 15.3361 20.8391 15.3303H20.8001C20.1197 15.3303 19.5043 15.6068 19.0625 16.0533C18.8291 16.2747 18.6434 16.5408 18.5167 16.8355C18.39 17.1302 18.3249 17.4474 18.3254 17.7678V17.81V17.8076C18.326 18.4688 18.591 19.1027 19.0623 19.5703C19.5336 20.0378 20.1726 20.3007 20.8391 20.3014H20.8379Z" fill="black"/>
</g>
<defs>
<clipPath id="clip0_71_187">
<rect width="30.9375" height="28.125" fill="white" transform="translate(0.3125 0.4375)"/>
</clipPath>
</defs>
</svg>
