<svg width="34" height="35" viewBox="0 0 34 35" fill="none" xmlns="http://www.w3.org/2000/svg">
<path d="M18.5081 3.43923C19.5343 3.43529 20.5605 3.44561 21.5864 3.47017L21.8592 3.48001C22.1742 3.49126 22.485 3.50532 22.8605 3.5222C24.3567 3.59251 25.3777 3.82876 26.2735 4.17611C27.2016 4.53329 27.9835 5.01704 28.7653 5.79892C29.4802 6.50149 30.0335 7.35134 30.3867 8.28939C30.7341 9.18517 30.9703 10.2075 31.0406 11.7038C31.0575 12.0778 31.0716 12.39 31.0828 12.705L31.0913 12.9778C31.1163 14.0033 31.127 15.029 31.1236 16.0547L31.125 17.1038V18.9459C31.1285 19.9721 31.1177 20.9983 31.0927 22.0242L31.0842 22.297C31.073 22.612 31.0589 22.9228 31.0421 23.2983C30.9717 24.7945 30.7327 25.8155 30.3867 26.7113C30.0347 27.6503 29.4812 28.5009 28.7653 29.2031C28.0622 29.918 27.2119 30.4712 26.2735 30.8245C25.3777 31.1719 24.3567 31.4081 22.8605 31.4785C22.485 31.4953 22.1742 31.5094 21.8592 31.5206L21.5864 31.5291C20.5605 31.5541 19.5343 31.5649 18.5081 31.5614L17.4591 31.5628H15.6183C14.5921 31.5663 13.5659 31.5555 12.54 31.5305L12.2672 31.522C11.9334 31.5099 11.5996 31.4959 11.266 31.4799C9.76971 31.4095 8.74877 31.1705 7.85158 30.8245C6.91317 30.4721 6.06316 29.9187 5.36111 29.2031C4.64539 28.5004 4.09158 27.65 3.7383 26.7113C3.39096 25.8155 3.15471 24.7945 3.08439 23.2983C3.06873 22.9646 3.05467 22.6309 3.04221 22.297L3.03517 22.0242C3.00925 20.9983 2.99753 19.9722 3.00002 18.9459V16.0547C2.99609 15.029 3.00641 14.0033 3.03096 12.9778L3.0408 12.705C3.05205 12.39 3.06611 12.0778 3.08299 11.7038C3.1533 10.2061 3.38955 9.18657 3.73689 8.28939C4.09039 7.35088 4.64528 6.50126 5.36252 5.80032C6.06409 5.08419 6.91356 4.52988 7.85158 4.17611C8.74877 3.82876 9.7683 3.59251 11.266 3.5222L12.2672 3.48001L12.54 3.47298C13.5654 3.44707 14.5912 3.43535 15.6169 3.43782L18.5081 3.43923ZM17.0625 10.4705C16.1309 10.4573 15.2059 10.6294 14.3414 10.9768C13.4769 11.3242 12.69 11.84 12.0265 12.4942C11.363 13.1483 10.8362 13.9278 10.4766 14.7873C10.117 15.6469 9.93183 16.5693 9.93183 17.501C9.93183 18.4328 10.117 19.3552 10.4766 20.2147C10.8362 21.0743 11.363 21.8538 12.0265 22.5079C12.69 23.1621 13.4769 23.6778 14.3414 24.0252C15.2059 24.3726 16.1309 24.5448 17.0625 24.5316C18.9273 24.5316 20.7157 23.7908 22.0344 22.4722C23.353 21.1536 24.0938 19.3651 24.0938 17.5003C24.0938 15.6355 23.353 13.8471 22.0344 12.5285C20.7157 11.2099 18.9273 10.4705 17.0625 10.4705ZM17.0625 13.283C17.6229 13.2727 18.1798 13.3741 18.7005 13.5814C19.2213 13.7887 19.6955 14.0977 20.0955 14.4903C20.4955 14.8829 20.8132 15.3513 21.0302 15.8681C21.2471 16.385 21.3589 16.9398 21.359 17.5003C21.3591 18.0608 21.2475 18.6157 21.0307 19.1326C20.8139 19.6495 20.4964 20.118 20.0965 20.5107C19.6966 20.9035 19.2225 21.2126 18.7018 21.4201C18.1811 21.6276 17.6243 21.7292 17.0639 21.7191C15.945 21.7191 14.872 21.2746 14.0808 20.4834C13.2896 19.6923 12.8452 18.6192 12.8452 17.5003C12.8452 16.3814 13.2896 15.3084 14.0808 14.5172C14.872 13.726 15.945 13.2816 17.0639 13.2816L17.0625 13.283ZM24.4453 8.36111C23.9917 8.37926 23.5626 8.57225 23.2481 8.89966C22.9335 9.22706 22.7578 9.66348 22.7578 10.1175C22.7578 10.5715 22.9335 11.008 23.2481 11.3354C23.5626 11.6628 23.9917 11.8558 24.4453 11.8739C24.9115 11.8739 25.3586 11.6887 25.6883 11.3591C26.0179 11.0294 26.2031 10.5823 26.2031 10.1161C26.2031 9.6499 26.0179 9.2028 25.6883 8.87314C25.3586 8.54349 24.9115 8.35829 24.4453 8.35829V8.36111Z" fill="black"/>
</svg>
